<svg width="30" height="30" viewBox="0 0 30 30" fill="none" xmlns="http://www.w3.org/2000/svg">
<path d="M15 0.629639C6.7125 0.629639 2.18932e-06 7.34214 2.18932e-06 15.6296C-0.00169914 18.7786 0.988222 21.848 2.82933 24.4027C4.67043 26.9573 7.26922 28.8672 10.257 29.8616C11.007 29.9921 11.2875 29.5421 11.2875 29.1476C11.2875 28.7921 11.268 27.6116 11.268 26.3546C7.5 27.0491 6.525 25.4366 6.225 24.5921C6.0555 24.1601 5.325 22.8296 4.6875 22.4726C4.1625 22.1921 3.4125 21.4976 4.668 21.4796C5.85 21.4601 6.693 22.5671 6.975 23.0171C8.325 25.2851 10.482 24.6476 11.343 24.2546C11.475 23.2796 11.868 22.6241 12.3 22.2491C8.9625 21.8741 5.475 20.5796 5.475 14.8421C5.475 13.2101 6.0555 11.8616 7.0125 10.8101C6.8625 10.4351 6.3375 8.89764 7.1625 6.83514C7.1625 6.83514 8.418 6.44214 11.2875 8.37414C12.5086 8.03523 13.7703 7.86465 15.0375 7.86714C16.3125 7.86714 17.5875 8.03514 18.7875 8.37264C21.6555 6.42264 22.9125 6.83664 22.9125 6.83664C23.7375 8.89914 23.2125 10.4366 23.0625 10.8116C24.018 11.8616 24.6 13.1921 24.6 14.8421C24.6 20.5991 21.0945 21.8741 17.757 22.2491C18.3 22.7171 18.7695 23.6171 18.7695 25.0241C18.7695 27.0296 18.75 28.6421 18.75 29.1491C18.75 29.5421 19.032 30.0101 19.782 29.8601C22.7595 28.8548 25.3469 26.9411 27.1799 24.3884C29.0128 21.8356 29.9991 18.7723 30 15.6296C30 7.34214 23.2875 0.629639 15 0.629639Z" fill="url(#paint0_radial_230_1352)"/>
<defs>
<radialGradient id="paint0_radial_230_1352" cx="0" cy="0" r="1" gradientUnits="userSpaceOnUse" gradientTransform="translate(5.9361 7.18999) rotate(34.7857) scale(27.1092 26.8811)">
<stop offset="0.0625" stop-color="#5988FF"/>
<stop offset="0.515625" stop-color="#5988FF"/>
<stop offset="1" stop-color="#0043F0"/>
</radialGradient>
</defs>
</svg>
